<svg xmlns:dc="http://purl.org/dc/elements/1.1/" xmlns:cc="http://creativecommons.org/ns#" xmlns:rdf="http://www.w3.org/1999/02/22-rdf-syntax-ns#" xmlns:svg="http://www.w3.org/2000/svg" xmlns="http://www.w3.org/2000/svg" xmlns:sodipodi="http://sodipodi.sourceforge.net/DTD/sodipodi-0.dtd" xmlns:inkscape="http://www.inkscape.org/namespaces/inkscape" version="1.1" x="0px" y="0px" viewBox="0 0 100 125"><g transform="translate(0,-952.36218)"><path style="text-indent:0;text-transform:none;direction:ltr;block-progression:tb;baseline-shift:baseline;color:#000000;enable-background:accumulate;" d="m 50,958.36218 c -24.28868,0 -44,19.71146 -44,44.00002 0,24.2886 19.71132,44 44,44 24.28867,0 44,-19.7114 44,-44 0,-24.28856 -19.71133,-44.00002 -44,-44.00002 z m 0,2 c 23.20779,0 42,18.79234 42,42.00002 0,23.2077 -18.79221,42 -42,42 -23.2078,0 -42,-18.7923 -42,-42 0,-23.20768 18.7922,-42.00002 42,-42.00002 z m 20.78125,19.875 -28.96875,13.4375 c -0.21446,0.0915 -0.39483,0.26063 -0.5,0.46875 L 27.875,1023.1434 c -0.33378,0.7418 0.61003,1.6637 1.34375,1.3125 l 28.96875,-13.4062 c 0.21957,-0.099 0.40087,-0.2804 0.5,-0.5 L 72.125,981.54968 c 0.42532,-1.22457 -0.34451,-1.61331 -1.34375,-1.3125 z m -1.625,2.96875 -12.125,26.12497 -26.1875,12.1563 12.125,-26.12503 z M 50,998.36217 c -1.02369,0 -2.0627,0.3752 -2.84375,1.1563 -1.5621,1.56213 -1.5621,4.12543 0,5.68753 1.5621,1.562 4.1254,1.562 5.6875,0 1.5621,-1.5621 1.5621,-4.1254 0,-5.68753 -0.78105,-0.7811 -1.82006,-1.1563 -2.84375,-1.1563 z" fill="#000000" fill-opacity="1" stroke="none" marker="none" visibility="visible" display="inline" overflow="visible"/></g><text x="0" y="115" fill="#000000" font-size="5px" font-weight="bold" font-family="'Helvetica Neue', Helvetica, Arial-Unicode, Arial, Sans-serif">Created by Barracuda</text><text x="0" y="120" fill="#000000" font-size="5px" font-weight="bold" font-family="'Helvetica Neue', Helvetica, Arial-Unicode, Arial, Sans-serif">from the Noun Project</text></svg>