<?xml version="1.0" encoding="utf-8"?>
<!-- Generator: Adobe Illustrator 16.0.4, SVG Export Plug-In . SVG Version: 6.00 Build 0)  -->
<!DOCTYPE svg PUBLIC "-//W3C//DTD SVG 1.1//EN" "http://www.w3.org/Graphics/SVG/1.1/DTD/svg11.dtd">
<svg version="1.1" id="Layer_1" xmlns="http://www.w3.org/2000/svg" xmlns:xlink="http://www.w3.org/1999/xlink" x="0px" y="0px"
	 width="24px" height="24px" viewBox="0 0 24 24" enable-background="new 0 0 24 24" xml:space="preserve">
<g>
	<path fill="#3A4F59" d="M12,24C5.4,24,0,18.6,0,12C0,5.4,5.4,0,12,0c6.6,0,12,5.4,12,12C24,18.6,18.6,24,12,24z M22.1,13.6
		C21.7,13.5,18.9,12.6,15.7,13.2c1.3,3.7,1.899,6.7,2,7.3C20,19,21.7,16.5,22.1,13.6z M16,21.5c-0.2-0.9-0.7-4-2.2-7.8
		c0,0,0,0-0.1,0c-5.8,2-7.9,6-8,6.399c1.7,1.4,3.9,2.2,6.3,2.2C13.4,22.3,14.8,22,16,21.5z M4.4,18.9c0.2-0.4,3-5.101,8.3-6.8
		c0.1,0,0.3-0.1,0.399-0.1c-0.3-0.6-0.5-1.2-0.8-1.7c-5.1,1.5-10.1,1.5-10.5,1.5c0,0.1,0,0.2,0,0.3C1.8,14.6,2.7,17.1,4.4,18.9z
		 M2,9.9c0.5,0,4.7,0,9.5-1.2C9.8,5.7,8,3.1,7.7,2.8C4.8,4.1,2.6,6.7,2,9.9z M9.6,2.1c0.3,0.4,2.1,2.9,3.8,6
		C17,6.7,18.6,4.7,18.8,4.4C17,2.7,14.6,1.8,12,1.8C11.2,1.8,10.4,1.9,9.6,2.1z M19.9,5.5c-0.2,0.3-1.9,2.5-5.7,4
		c0.2,0.5,0.5,1,0.7,1.5c0.1,0.2,0.1,0.4,0.199,0.5c3.4-0.4,6.801,0.3,7.101,0.3C22.2,9.5,21.4,7.3,19.9,5.5z"/>
</g>
</svg>
